<svg width="18" height="12" viewBox="0 0 18 12" fill="none" xmlns="http://www.w3.org/2000/svg">
<path fill-rule="evenodd" clip-rule="evenodd" d="M0.292893 0.292893C0 0.585786 0 1.05719 0 2V10C0 10.9428 0 11.4142 0.292893 11.7071C0.585786 12 1.05719 12 2 12H11.8593C12.9072 12 13.4312 12 13.8733 11.7633C14.3155 11.5267 14.6062 11.0907 15.1875 10.2188L16.5208 8.2188C17.2378 7.1433 17.5963 6.60555 17.5963 6C17.5963 5.39445 17.2378 4.8567 16.5208 3.7812L15.1875 1.7812C14.6062 0.909267 14.3155 0.473302 13.8733 0.236651C13.4312 0 12.9072 0 11.8593 0H2C1.05719 0 0.585786 0 0.292893 0.292893ZM12 8C13.1046 8 14 7.10457 14 6C14 4.89543 13.1046 4 12 4C10.8954 4 10 4.89543 10 6C10 7.10457 10.8954 8 12 8Z" fill="#0EA17D"/>
</svg>
