<svg width="18" height="17" viewBox="0 0 18 17" fill="none" xmlns="http://www.w3.org/2000/svg">
<path fill-rule="evenodd" clip-rule="evenodd" d="M11 0H7L7 2C7 3.10457 6.10457 4 5 4C3.89543 4 3 3.10457 3 2L3 0.0761193C2.02492 0.172031 1.36857 0.388793 0.87868 0.87868C0 1.75736 0 3.17157 0 6V11C0 13.8284 0 15.2426 0.87868 16.1213C1.75736 17 3.17157 17 6 17H12C14.8284 17 16.2426 17 17.1213 16.1213C18 15.2426 18 13.8284 18 11V6C18 3.17157 18 1.75736 17.1213 0.87868C16.6314 0.388793 15.9751 0.172031 15 0.0761193L15 2C15 3.10457 14.1046 4 13 4C11.8954 4 11 3.10457 11 2L11 0ZM4 8C4 7.44772 4.44772 7 5 7L13 7C13.5523 7 14 7.44771 14 8C14 8.55228 13.5523 9 13 9L5 9C4.44772 9 4 8.55229 4 8ZM5 11C4.44772 11 4 11.4477 4 12C4 12.5523 4.44772 13 5 13L13 13C13.5523 13 14 12.5523 14 12C14 11.4477 13.5523 11 13 11L5 11Z" fill="#0EA17D"/>
</svg>
