<svg width="12" height="15" viewBox="0 0 12 15" fill="none" xmlns="http://www.w3.org/2000/svg">
<path d="M1.01743 4.73684H10.9817L10.386 13.5197C10.3587 13.9206 10.1666 14.2969 9.84879 14.5719C9.53094 14.8469 9.11124 15 8.67514 15H3.32486C2.88876 15 2.46907 14.8469 2.15122 14.5719C1.83336 14.2969 1.64126 13.9206 1.614 13.5197L1.01743 4.73684ZM12 2.36842V3.94737H0V2.36842H2.57143V1.57895C2.57143 1.16018 2.75204 0.758573 3.07353 0.462463C3.39502 0.166353 3.83106 0 4.28571 0H7.71429C8.16894 0 8.60498 0.166353 8.92647 0.462463C9.24796 0.758573 9.42857 1.16018 9.42857 1.57895V2.36842H12ZM4.28571 2.36842H7.71429V1.57895H4.28571V2.36842Z" fill="#0EA17D"/>
</svg>
